<?xml version="1.0" ?><!DOCTYPE svg  PUBLIC '-//W3C//DTD SVG 1.1//EN'  'http://www.w3.org/Graphics/SVG/1.1/DTD/svg11.dtd'><svg enable-background="new 0 0 26 26" id="Слой_1" version="1.1" viewBox="0 0 26 26" xml:space="preserve" xmlns="http://www.w3.org/2000/svg" xmlns:xlink="http://www.w3.org/1999/xlink"><path d="M24.2119141,2.3457031c-0.1826172-0.1425781-0.4208984-0.1923828-0.6435547-0.1367188L8.9296875,5.8681641  C8.5957031,5.9511719,8.3613281,6.2519531,8.3613281,6.5957031l0.0006104,1.8269653  c0,0.0010986-0.0006104,0.0020142-0.0006104,0.0031128v10.020874c-0.7225342-0.4368286-1.6456909-0.7073975-2.6806641-0.7073975  C3.3359375,17.7392578,1.5,19.0732422,1.5,20.7763672s1.8359375,3.0371094,4.1806641,3.0371094  s4.1806641-1.3339844,4.1806641-3.0371094V10.0114746L23,6.7261353v8.0613403  c-0.7225342-0.4368286-1.6456909-0.7073975-2.6806641-0.7073975c-2.3447266,0-4.1806641,1.3339844-4.1806641,3.0371094  s1.8359375,3.0371094,4.1806641,3.0371094S24.5,18.8203125,24.5,17.1171875V5.765625v-1V2.9365234  C24.5,2.7060547,24.3935547,2.4873047,24.2119141,2.3457031z M5.6806641,22.3134766C4.1005859,22.3134766,3,21.5029297,3,20.7763672  s1.1005859-1.5371094,2.6806641-1.5371094s2.6806641,0.8105469,2.6806641,1.5371094S7.2607422,22.3134766,5.6806641,22.3134766z   M9.8613281,8.4658203V8.4257813V7.1816406L23,3.8974609V4.765625v0.4140625L9.8613281,8.4658203z M20.3193359,18.6542969  c-1.5800781,0-2.6806641-0.8105469-2.6806641-1.5371094s1.1005859-1.5371094,2.6806641-1.5371094S23,16.390625,23,17.1171875  S21.8994141,18.6542969,20.3193359,18.6542969z" fill="#1D1D1B"/></svg>